<?xml version="1.0" encoding="utf-8"?>
<!-- Generator: Adobe Illustrator 19.2.1, SVG Export Plug-In . SVG Version: 6.00 Build 0)  -->
<svg version="1.1" id="Layer_1" xmlns="http://www.w3.org/2000/svg" xmlns:xlink="http://www.w3.org/1999/xlink" x="0px" y="0px"
	 viewBox="0 0 500 400" style="enable-background:new 0 0 500 400;" xml:space="preserve">
<style type="text/css">
	.st0{fill:#FFFFFF;}
</style>
<g>
	<path class="st0" d="M448.4,304.2c13.5,7.6,26.7,14.9,39.9,22.3c-0.3,0.9-0.6,1.8-0.9,2.7c-5.1-1.5-10.4-2.4-15.1-4.5
		c-5.9-2.7-11.2-6.8-17.1-9.5c-3.7-1.8-8-2.7-12.2-3.2c-5.9-0.7-9,2.2-8.9,8.4c0.1,8.2,0.2,16.5-0.3,24.7c-0.2,3.4-1.9,6.7-2.9,10.1
		c-1-0.2-2-0.4-3-0.6c0-7.4,0.1-14.8,0-22.3c-0.1-5.1,0.8-10.2-7-11.1c-4.6-0.5-4.9-5.6-1.7-7.7c9.8-6.2,8.8-15.6,9.1-24.9
		c0.1-2.6,1.1-5.2,1.8-7.8c0.9,0,1.9,0,2.8,0c0.7,6.9,1.5,13.8,2.5,23.2c6.2-4.7,10.5-8,16.6-12.6c-5.9-2.6-9.5-4.2-14.1-6.2
		c6.8-5,13.6-4.4,17.5,0.3C461.9,293.6,450.3,297,448.4,304.2z"/>
	<path class="st0" d="M383.9,311c-14.7-0.8-23.7-12.2-35.6-22.7c-1.2,11.2-2.2,20.2-3.2,29.2c-1.2,0-2.3,0-3.5,0
		c-0.7-2.7-2.1-5.4-2.1-8.1c0.4-27.9,1-55.8,1.6-83.6c0.1-2.6,1.1-5.1,1.7-7.7c0.7,0,1.5,0.1,2.2,0.1c0.5,3.2,1.3,6.4,1.4,9.6
		c0.2,8.3,0.7,16.6,0.1,24.8c-1.7,23.8,10.6,38.9,29.9,50c3,1.7,6,3.6,9,5.4C384.9,308.9,384.4,310,383.9,311z"/>
	<path class="st0" d="M72.9,149.6c7.6-8.4,15.2-16.9,24.4-27.1c-2.1,6.3-3.6,10.8-5.2,15.6c1.4,0.7,2.3,1.5,3.3,1.7
		c12.5,2.2,13.3,4.4,8,16c-7.6,16.8-14.4,34-21.9,50.8c-4.7,10.6-10.4,20.8-15.3,31.4c-3.7,8.2-6.6,16.9-10.3,25.2
		c-0.8,1.8-3.3,2.8-5,4.2c-0.5-2.3-1.1-4.6-1.5-6.9c-0.1-0.4,0.5-1,0.7-1.5c16.2-35,32.5-70,48.8-105c2.7-5.7,0.6-8.3-5.2-7.8
		c-3.8,0.3-7.5,1.9-11.2,3c-2.7,0.8-5.4,1.8-8,2.7C73.9,151,73.4,150.3,72.9,149.6z"/>
	<path class="st0" d="M149.3,82.1c1.2,9.1,2.3,18.3,3.6,27.4c4.9,34.6,10,69.2,14.6,103.9c0.9,6.7,3.3,9.8,10,9.7
		c4.1,0,8.1,0.4,12.2,0.7c0,0.8,0,1.6,0,2.3c-4.3,0.3-8.6,0.8-12.9,0.9c-5.7,0.3-8.1,2.9-7.6,8.7c0.7,7.8,0.9,15.6,1.3,23.4
		c-0.7,0.1-1.4,0.2-2.1,0.3c-2.5-11.3-8.5-23.2-6.6-33.7c2.3-12.6,0.3-24-0.8-35.8c-1.1-11.9-3.3-23.7-5.1-35.5
		c-1.8-12.1-3.9-24.2-5.4-36.3c-1.5-11.9-2.4-23.9-3.6-35.9C147.8,82.2,148.5,82.1,149.3,82.1z"/>
	<path class="st0" d="M416.1,309.4c-1.9-1.3-4-2.4-5.6-3.9c-8.6-8.1-17.1-16.2-25.5-24.4c-1.4-1.4-2.3-3.4-3.4-5.1
		c1.9-0.9,3.7-2.6,5.7-2.7c7.6-0.3,15.3-0.4,22.9,0.1c2.4,0.1,4.6,2.4,6.9,3.7c-1.3,2-2.3,4.9-4.1,5.7c-7.6,3.1-6.4,7-2.1,12.2
		c3.1,3.7,5.5,8,8.2,12C418,307.7,417,308.5,416.1,309.4z"/>
	<path class="st0" d="M47.1,92.3c-7.1-0.5-14.2-0.7-21.1-1.9c-1.6-0.3-3.3-4.4-3.5-6.9c-0.7-6.2-1-12.5-0.7-18.7
		c0.3-6.6-0.7-11.9-10-13.5c5.1-3,8.7-5.2,11.1-6.6c4.8,1.8,8.8,3.9,13.1,4.7c4.4,0.9,9,0.7,13.6,1c0,1.2,0,2.4,0.1,3.7
		c-4.4,0.3-9,0.2-13.3,1.2c-3.3,0.8-8.4,2.7-8.8,4.9c-1.2,6.2,4.4,4.7,8.1,5.1c1.8,0.2,3.6,0.9,5.5,3.4c-2.1,0.6-4.3,1.8-6.4,1.7
		c-8.2-0.5-8.3,4.7-8.2,10.5c0,7.2,4.4,7.3,9.8,6.9c3.7-0.3,7.4-0.1,11.1-0.1C47.2,89.2,47.1,90.7,47.1,92.3z"/>
	<path class="st0" d="M255.7,163.7c0.6,0,1.2-0.1,1.7,0c4,1.2,7.9,2.5,11.8,3.8c-3.5,3-6.6,6.9-10.6,8.7c-3.3,1.5-8,1.7-11.6,0.6
		c-2.8-0.8-4.8-4.4-7.2-6.7c2.5-2.1,4.6-4.8,7.4-6c2.4-1,5.6-0.2,8.4-0.2C255.7,163.8,255.7,163.7,255.7,163.7z"/>
</g>
</svg>
